<svg xmlns="http://www.w3.org/2000/svg" viewBox="0 0 300 300" enable-background="new 0 0 300 300"><path fill="#664F44" d="M262.059 207.703c-.016-.423-.053-.827-.1-1.206-.031-.252-.078-.502-.141-.745-.105-.562-.234-1.122-.424-1.653l-.004-.01c-.389-1.104-.99-2.163-1.764-3.056-.77-.892-1.692-1.597-2.615-2.085l-.029-.018c-.984-.516-1.951-.803-2.828-.971-.258-.047-.498-.071-.738-.098 1.121-4.804-.282-8.471-1.189-10.186l.211-.199c1.197-1.156 2.215-2.263 3.07-3.374l.162-.222c.689-.988 1.143-2 1.434-2.929.247-.798.369-1.521.441-2.179l.008.001.008-.04.004-.095.027-.203h-.016l.012-.228h.006l.003-.136.009-.422c.007-.272.006-.555-.009-.864-.065-1.487-.335-3.421-1.312-5.516-.488-1.043-1.162-2.115-2.061-3.109-.893-.992-2.008-1.896-3.289-2.611l.008.003-.252-.151c-2.66-3.917-5.699-6.953-8.394-9.257-1.397-1.194-2.702-2.191-3.813-3.005-1.102-.809-2.029-1.447-2.547-1.83l.006.003c-1.186-.87-2.066-1.392-2.488-1.63-.971-.59-1.693-1.062-2.129-1.39-.34-.258-.506-.423-.568-.49l-.033-.043c-.006-.009-.043-.082-.094-.345-.055-.262-.113-.709-.139-1.355-.045-1.018-.01-2.506.102-4.472.178-3.161.537-7.524.908-13.438.123-1.88.141-3.651.072-5.32-.111-2.678-.457-5.103-1.018-7.301l-.002-.012c-.123-.5-.266-.991-.416-1.475l-.002-.005-.003-.006c-.112-.36-.212-.633-.272-.807l.004.01c-.113-.321-.23-.64-.359-.963l-.004-.014-.252-.612-.002-.006-.002-.004c-.203-.477-.434-.988-.725-1.54l-.078-.147-.146-.261-.104-.175c-.539-.887-1.109-1.696-1.705-2.449-.301-1.359-.823-3.371-1.69-5.657-.77-2.012-1.802-4.244-3.269-6.445-.51-.759-1.088-1.511-1.723-2.246l.211-.219c.297-.311 7.345-7.691 12.863-17.27 10.285-17.853 6.861-28.768 2.18-34.78l-.133-.168-.141-.158c-4.514-5.017-10.652-8.039-18.246-8.982-15.727-1.956-33.512 5.761-38.175 7.956l-8.478-9.364-.031-.035c-.75-.823-1.582-1.56-2.475-2.206-.897-.647-1.859-1.206-2.869-1.674-2.025-.939-4.248-1.528-6.613-1.822-4.744-.584-10.07-.017-15.863 1.469-8.682 2.239-18.434 6.576-28.625 12.69-10.188 6.116-20.803 14.017-31.11 23.417-12.594 11.49-22.998 23.635-30.578 35.162-3.787 5.765-6.871 11.376-9.162 16.698-2.287 5.325-3.791 10.358-4.371 15.017-.421 3.386-.354 6.585.326 9.534.297 1.29.723 2.529 1.27 3.703.701 1.509 1.607 2.908 2.736 4.146l.027.03 8.881 9.301.982 1.028-.057.099-.312.564-.451.844-.287.582-.412.869-.261.592c-.13.296-.255.595-.374.896l-.234.598-.334.926-.203.604c-.104.316-.198.635-.293.955l-.082.265-.094.341c-.092.328-.172.66-.253.991l-.146.6-.092.437-.121.617-.108.561c-.073.417-.134.841-.192 1.262l-.055.372-.004.035-.01.112-.086.832c-.041.436-.076.872-.1 1.313l-.031.585-.023.453-.006.93v.9570000000000001l.02.6.043.651.023.484.031.344.059.614.082.771.002.024v-.004l.039.273.104.694.111.729.059.299.082.415.002.012.004.019.037.177.156.76.053.221.121.476.051.212.059.232.051.195.045.163.037.147.058.192.054.201.146.468.234.75-.018-.053.02.061.068.194.207.584.006.012v.002l.283.773.002.005.002.008-.002-.008.011.031-.005-.016.057.139.201.492.064.158.01.025.131.312.176.411-.006-.013.07.15.18.391.135.28-.006-.013.008.018.006.013-.006-.013.322.671.012.025.008.015.059.115.168.32.189.354.01.021.326.602.01.017.01.02.061.101.17.295.245.412.021.032.004.01.328.535.014.022.043.07.213.329.285.429-.014-.021.381.56.014.021.008.015-.016-.025.018.026.014.019-.004-.003.006.009.002.001.24.337.311.424-.006-.009.34.454.029.039.297.38.355.438.037.047.283.341.053.063-.002.001.018.021.031.033.498.567.17.195v-.001l.002.003.007.008.013.013-.004-.003.299.327.037.043.002.003.006.005.023.024-.006-.006.572.594.234.242.01.01.281.284.029.025.085.089c.229.225.468.44.704.658l.055.054.016.013.006.006.008.008.299.271.016.016c.303.268.607.529.91.781l.018.015.172.142.117.096-.004-.004.176.139.75.589.068.054.031.023.199.149.047.036.037.025.213.152.646.456.182.128.021.015.225.153.01.004.115.074.685.441.36.229.197.12.111.064.072.043c.361.217.701.413 1.012.584l.029.016.193.104.014.01c.43.229.838.439 1.225.631l.066.032.211.102.002-.002.619.281.293.134.357.164.1.044.029.012.047.021.596.238.102.038.668.268.053.02.164.059.316.108.098.033c.318.113.637.229.961.332l.076.023.027.009.012.006c.498.155.996.299 1.492.433l.02.005.084.021-.029-.007c.439.115.871.215 1.299.311h.006l.158.042.166.035c.408.089.824.161 1.243.233l.118.032.295.045.756.108.109.296.004.014c.689 1.881 1.436 3.752 2.238 5.608 11.83 32.737 44.531 58.114 81.848 62.754 37.318 4.64 77.152-20.163 93.381-53.68.699-1.282 1.338-2.54 1.92-3.76 1.609-1.656 2.859-3.375 3.689-5.196.99-2.139 1.324-4.393 1.231-6.237z"/><polygon fill="#664F44" points="229.242,111.629 229.246,111.638 229.248,111.641"/><polygon fill="#664F44" points="64.576,203.276 64.574,203.274 64.572,203.274"/><polygon fill="#664F44" points="54.008,193.375 54.01,193.379 54.01,193.376"/><polygon fill="#664F44" points="54.014,193.385 54.016,193.386 54.01,193.379"/><polygon fill="#664F44" points="49.065,182.901 49.061,182.886 49.059,182.883"/><polygon fill="#664F44" points="48.646,181.245 48.645,181.239 48.643,181.237"/><polygon fill="#664F44" points="54.97,194.688 54.982,194.704 54.965,194.683 54.955,194.67"/><path fill="#132134" d="M230.141 44.098c-1.807-2.009-3.896-3.523-6.168-4.645-.419-.154-.84-.309-1.271-.434-.211-.14-.426-.272-.645-.401-2.008-.769-4.133-1.271-6.318-1.552-10.842-1.395-23.186 2.552-30.244 5.355l-1.172.49c-.594.254-1.191.512-1.797.778-1.018.448-2.047.917-3.1 1.407l-.457.215-1.916-2.226-.865-1.005-.797-.928-.344-.401-7.275-8.448-.633-.734-.781-.907-.14.031-2.058.466-2.377.538c-1.314-.609-2.875-1.045-4.683-1.27-3.618-.456-8.214-.037-13.448 1.315-5.235 1.345-11.105 3.604-17.33 6.704-12.451 6.196-26.312 15.745-39.65 27.913-4.654 4.244-8.994 8.58-12.984 12.93-3.875 4.219-7.42 8.451-10.6 12.626-6.458 8.476-11.408 16.72-14.569 24.073-2.11 4.9-3.417 9.402-3.894 13.255-.352 2.802-.26 5.251.209 7.275.152.655.354 1.25.58 1.819.472 1.195 1.092 2.227 1.893 3.109l8.07 8.454.865.905.057-.062c.246-.284.498-.568.754-.847l.068-.074.283-.29c.242-.253.486-.506.736-.753l.471-.449.459-.438.215-.188.504-.441c.236-.204.473-.406.717-.605l.43-.346.062-.049.775-.592.494-.363.82-.567.498-.33c.283-.185.572-.363.861-.54l.5-.301c.303-.178.609-.346.916-.514l.488-.266.185-.098.028-.016.789-.385.441-.215.672-.299.586-.254.219-.096c.498-.203 1-.396 1.508-.575l.487-.163.526-.173.205-.07.314-.099.651-.184.161-.045.756-.204.713-.167.887-.196.37-.075.378-.063c.29-.053.584-.103.875-.147l.775-.109.622-.078.253-.022.283-.033.156-.009c1.035-.041 2.166-.033 3.404.059l.189.013c1.25.103 2.602.301 4.021.602.34.073.678.144 1.027.229l.219-.403c.752-1.349 1.513-2.664 2.281-3.956 4.494-7.534 9.314-14.12 14.234-19.862 1.678-1.961 3.371-3.828 5.063-5.598 7.058-7.369 14.155-13.108 20.646-17.539 1.441-.984 2.854-1.904 4.229-2.764 1.873-1.169 3.676-2.227 5.392-3.176 1.396-.774 2.735-1.479 4.007-2.117 2.119-1.066 4.049-1.95 5.746-2.678.525-.225 1.03-.436 1.508-.63.741-.302 1.426-.569 2.047-.803-.535-.056-1.078-.099-1.633-.128-.518-.027-1.043-.037-1.574-.038l-.4.001c-.535.007-1.076.021-1.625.054-1.04.062-2.102.172-3.189.343-.363.057-.729.121-1.098.193 2.701-1.397 5.366-2.447 7.938-3.236 1.709-.525 3.379-.938 4.982-1.25 2.211-.428 4.301-.676 6.229-.802 1.293-.083 2.51-.112 3.637-.103 1.135.011 2.178.06 3.115.13 3.277.246 5.252.747 5.252.747-.465-.655-1.051-1.226-1.688-1.724-1.16-.899-2.496-1.543-3.668-1.999-.461-.18-.9-.335-1.286-.456-.308-.097-.593-.18-.829-.243.553-.096 1.098-.175 1.636-.247.571-.077 1.136-.144 1.69-.196 4.723-.441 8.853-.035 11.956.541 3.741.692 5.995 1.633 5.995 1.633-.533-1.04-1.324-1.928-2.189-2.677-.631-.544-1.297-1.017-1.934-1.409 1.254.29 2.445.613 3.578.959 2.992.914 5.537 1.978 7.539 2.942.648.312 1.241.614 1.773.898l.432.235c1.832 1 2.846 1.718 2.846 1.718-.307-1.078-.929-2.096-1.654-3.01-.182-.229-.367-.456-.557-.67l.088.04.41.135.533.187c.797.29 2.017.776 3.449 1.488l.209.104.592.307c.492.26 1 .547 1.52.856.482.288.977.597 1.473.931.256.172.511.35.768.533.547.392 1.09.812 1.629 1.263.551.461 1.094.954 1.619 1.478l.312.313c.384.395.754.81 1.111 1.24.68.812 1.309 1.689 1.867 2.633.67 1.132 1.24 2.354 1.666 3.685l.064.228c.309-.332.854-.929 1.562-1.743 5.896-6.768 23.243-28.759 12.792-42.178z"/><path fill="#90694C" d="M256.062 208.396l.004-.002s.203-1.522-.602-2.885l-.018-.037-.148-.228-.053-.079c-.088-.119-.195-.233-.305-.348-.197-.207-.428-.401-.701-.574-.143-.094-.297-.181-.463-.262-.457-.219-1.004-.385-1.654-.479-.475-.069-1.018-.089-1.609-.071-.238.009-.475.014-.732.037l-.117.007.043.157.115.431.059.236c.084.337.186.765.288 1.249l-.105.275-.04.094c-.297.688-1.102 2.277-2.895 4.344-.305.352-.643.72-1.006 1.098-5.002 5.168-15.827 12.526-38.602 16.644-7.729 1.09-14.854 1.15-20.939.394-8.999-1.119-15.742-3.994-18.879-7.86-.272-.332-.521-.674-.758-1.02-.176-.255-.345-.513-.5-.773l-.162-.29c-1.349-2.383-1.936-4.981-1.902-7.497.043-3.055.996-5.978 2.609-8.225 1.309-1.822 3.049-3.199 5.084-3.835.998-.312 2.064-.451 3.186-.375.227.016.525.048.898.094l3.075.406.427.054c4.273.531 11.08 1.173 19.311.671 14.975-.912 34.684-5.624 52.58-21.762l.049-.063v-.028c.061-1.352-.121-3.793-1.828-5.691-.299-.332-.646-.646-1.043-.938-.227-.166-.462-.325-.724-.473-.263-.146-.503-.293-.735-.441-.316-.198-.615-.396-.881-.594l-.039-.057-.373-.562c-4.643-7.03-11.037-11.111-13.588-12.981-1.203-.885-1.969-1.287-1.969-1.287-5.521-3.364-6.332-4.48-5.816-13.616.186-3.29.541-7.614.908-13.477.049-.763.072-1.487.085-2.199l.007-.503c.006-.673-.002-1.33-.027-1.961l-.006-.181-.016-.194c-.027-.496-.062-.978-.104-1.446l-.061-.616c-.055-.501-.117-.988-.195-1.458l-.13-.705-.157-.772-.17-.736-.002-.006.002-.002v.002c-.074-.295-.16-.573-.241-.853l-.087-.307-.094-.274-.031-.093-.094-.268-.004-.019-.234-.631-.025-.068-.08-.193-.096-.239-.021-.046v-.006c-.166-.388-.34-.764-.523-1.115l-.146-.26c-.209-.346-.424-.67-.643-.982l-.088-.131-.109-.146c-.156-.215-.314-.426-.473-.623l-.216-.271c-.212-.251-.423-.494-.636-.721v-.002l-.006-.036-.006-.044-.012-.062-.016-.087-.014-.087-.027-.141-.014-.085-.039-.197-.015-.07c-.075-.375-.181-.861-.323-1.438l-.008-.042-.113-.437-.016-.057-.131-.483-.006-.011c-.109-.387-.234-.805-.373-1.237l-.146-.432c-.1-.304-.204-.606-.32-.922l-.211-.546c-.111-.294-.23-.587-.359-.889l-.26-.593c-.136-.298-.275-.593-.422-.89l-.307-.606c-.16-.304-.33-.601-.504-.899l-.34-.576c-.201-.321-.418-.636-.637-.95l-.33-.473-.322-.393c-.252-.321-.501-.644-.777-.946l-.033-.034-.156-.149c-.355-.381-.729-.753-1.129-1.095l-.072-.062c-.176-.149-.361-.294-.545-.434l-.02-.016-.066-.049-.49-.347-.088-.062.035.029c-.176-.13-.494-.298-.912-.484l-.479-.202c-.861-.345-2.026-.737-3.406-1.104l-.262-.065c-1.146-.298-2.422-.575-3.773-.79-.455-.072-.916-.139-1.385-.195l-.67-.062-.271-.025c-1.062-.102-2.141-.172-3.225-.162l-.064.002c-1.396.014-2.795.129-4.127.394.312-.521 1.16-1.095 2.01-1.574 1.059-.599 2.119-1.044 2.119-1.044-.605.045-1.225.131-1.844.23l-.602.098-.389.073-.113.023-.322.068c-3.113.663-6.109 1.783-7.775 2.464l-.625.26-.105.044-.502.065.004-.005c1.229-2.271 3.041-3.495 4.422-4.142.24-.113.471-.215.68-.294l.213-.076.516-.168c.326-.095.538-.137.538-.137l-.431.031-.365.028-.539.039-.322.024c-3.442.373-6.504 1.54-9.127 2.989-1.809.999-3.416 2.129-4.768 3.242l-1.105.232c-3.764.803-8.062 1.838-12.582 3.225-1.67.513-3.369 1.073-5.084 1.688-1.334.479-2.68 1.001-4.027 1.549-.965.393-1.93.804-2.895 1.234-6.939 3.098-13.777 7.211-19.523 12.729l-.627.588c-.5.497-.982 1.019-1.463 1.538l-.598.627c-.242.269-.467.558-.703.832-1.071 1.247-2.102 2.54-3.055 3.915-.711 1.021-1.381 2.079-2.018 3.175l-.078.13c-1.316 2.284-2.465 4.73-3.418 7.353-.477 1.312-.904 2.667-1.279 4.066-.098.37-.195.742-.287 1.119l-.051.196c-.363 1.52-.654 3.098-.889 4.723l-.139.961c-.102.812-.182 1.639-.25 2.477-.062.766-.109 1.543-.145 2.331l-.008.181c-.016.385-.037.769-.045 1.159-.009.446-.006.901-.006 1.355l-.003.318c.003.887.019 1.781.058 2.694l.01.146c.039.907.104 1.833.182 2.767l.105 1.17.025.288.072.656c.115 1.033.254 2.084.416 3.15l.131.889c.15.933.312 1.873.496 2.83 0 0-.167-1.228-.062-3.032.025-.415.064-.859.121-1.332.129-1.024.348-2.155.721-3.32.092-.285.195-.572.306-.861l.153-.376c.221-.534.469-1.07.768-1.6.068.378.141.753.217 1.133l.023.122-.002.173-.008.753c-.004.576-.004 1.226.002 1.935.008.711.021 1.474.047 2.283.104 3.395.396 7.493 1.129 10.984 0 0 .139-6.349 1.213-7.067 0 0 1.879 11.757 3.623 16.195.227.574.451 1.032.668 1.319l-.045-1.166-.248-6.534.035-.672c1.307 2.678 2.795 5.43 4.475 8.256.467.782.941 1.568 1.437 2.362-3.231 2.841-6.218 6.86-8.362 11.667-.342.769-.664 1.557-.961 2.362-.168.459-.328.928-.48 1.399l-.141.447c-.103.332-.203.664-.299 1.002l-.141.519c-.09.336-.176.675-.256 1.018l-.113.48c-.111.489-.215.981-.307 1.48l-.008.046c-.09.5-.17 1.005-.24 1.514l-.062.492c-.047.362-.088.727-.123 1.092l-.051.558c-.031.368-.055.741-.074 1.112l-.025.505c-.022.536-.035 1.077-.033 1.622l.002.07c0 .418.012.837.027 1.258.018.425.043.85.074 1.277l.012.172.006.107c.041.519.096 1.039.16 1.563l.07.498c.049.358.098.718.159 1.079l.106.603c.062.331.123.66.193.992l.141.64c.074.322.15.646.234.971l.172.652c.09.325.182.651.281.978l.197.646c.109.338.225.678.342 1.016l.214.609c.138.375.284.75.437 1.126l.199.504c.453 1.089.961 2.182 1.527 3.276l.262.486c.205.383.414.768.633 1.15l.355.602c.205.346.412.693.631 1.039l.412.645c.217.332.439.666.666.997l.46.661c.233.331.476.661.724.99l.488.652c.264.339.531.677.809 1.014l.499.619c.308.368.629.737.952 1.104l.451.52c.486.539.984 1.078 1.504 1.614l-.002-.003c-.003-.005-.303-.438-.711-1.195l-.015-.025-.237-.461-.025-.047-.264-.551-.018-.034-.287-.656c-.766-1.842-1.51-4.396-1.414-7.247.296.396.598.778.898 1.169.349.71.793 1.591 1.311 2.581l.543 1.022c.761 1.403 1.643 2.962 2.604 4.521 1.154 1.869 2.424 3.742 3.734 5.357l-.002-.002c-.006-.011-1.525-3.184-2.035-5.266-.143-.585-.211-1.088-.137-1.404l.368.378.369.378.891 1.18.173.227.535.702.01.014.684.885c2.139 2.749 4.984 6.264 7.014 8.193.677.644 1.262 1.112 1.701 1.315l-2.928-5.246c6.627 5.393 33.973 12.316 60.912 4.588 3.252-.931 6.5-2.08 9.7-3.473 1.935-.837 3.849-1.756 5.743-2.774l.275-.153c1.326-.725 2.641-1.503 3.945-2.324l.029-.018c.98-.617 1.951-1.263 2.912-1.933 1.609-1.135 3.203-2.328 4.756-3.626l.004-.002.006-.006.275-.234c1.539-1.345 2.98-2.729 4.318-4.137 1.768-1.859 3.355-3.76 4.793-5.665l.105-.138c.352-.47.695-.938 1.029-1.4l.094-.137.313-.467c.464-.668.923-1.337 1.353-2.001l.312-.48.652-1.052.485-.814.521-.881c.302-.531.596-1.059.877-1.582l.324-.615c.215-.408.426-.811.625-1.21l.277-.558.082-.175c.25-.503.488-1.003.719-1.494l.043-.104c.867-.809 1.541-1.578 2.082-2.314l.232-.313c1.204-1.729 1.597-3.262 1.618-4.637z"/><path fill="#90694C" d="M95.127 188.919l-.066-.365.021-.008c-.315-1.734-.554-3.515-.725-5.334l-.043-.384c-.301.094-.639.491-.979 1.033-.127.202-.252.425-.377.659-.91 1.71-1.73 4.082-1.73 4.082.064-.793.151-1.614.248-2.44l.037-.287c.102-.841.219-1.689.344-2.532l.045-.303c.146-.95.3-1.894.46-2.805l.062-.352.012-.06.057-.317.084-.469c.131-.722.266-1.42.396-2.082.119-.598.234-1.164.346-1.697l.035-.172.051-.24.049-.239.006-.028.086-.396.008-.034.074-.349.118-.542.011-.048.089-.407.114-.51.002-.005.002-.004.059-.254.004-.016.051-.223.102-.437.025-.104.01-.038.029-.123.02-.085.004-.012-.014.011-.184.167c-.162.145-.328.285-.48.445l-.167.184c-.179.2-.353.41-.515.633l-.086.108c-.201.28-.389.574-.566.873v.001l-.022.039-.001.002-.072.133-.119.222-.301.559-.005.007-.003.006-.006.017-.035.07-.033.071c-.145.299-.275.596-.398.889-.348.824-.617 1.609-.818 2.266l-.189.648c-.117.423-.199.754-.236.916l-.002.015-.025.108v0l.01-.127.062-.752c.039-.525.072-1.054.131-1.576.046-.439.113-.87.176-1.307l.061-.408.088-.602.105-.555.002-.014v-.001l.039-.205.012-.056.127-.677.049-.261.031-.155.006-.028.047-.221.062-.268.23-.977.014-.055.172-.723.002-.011.006-.017.02-.069c.127-.49.268-.97.408-1.452l.037-.133.037-.133.078-.273c.233-.783.482-1.557.747-2.312l.034-.095c.227-.642.457-1.273.697-1.896l.027-.071.328-.808.018-.04c.164-.404.326-.811.494-1.201l.001-.004v-.002l.003-.006.02-.049.311-.686.003-.006.022-.047v-.002l.184-.411.297-.662.09-.192.002-.009 1.707-3.067.209-.387.035-.062.088-.157.555-1.015.782-1.408c.501-.902.93-1.667 1.19-2.129l.268-.477.012-.023h-.002l-.006-.005-.017-.012c-.065-.045-.584-.402-1.437-.918-.973-.587-2.387-1.382-4.107-2.18-.551-.257-1.131-.511-1.738-.76-.729-.299-1.492-.589-2.287-.856l-.627-.188c-.666-.21-1.35-.398-2.049-.565l-.039-.009c-.48-.115-.957-.234-1.449-.326-.387-.072-.773-.145-1.166-.198l-.57-.059-.561-.057c-.529-.047-1.061-.071-1.592-.084-.258-.006-.516-.015-.773-.008-1.156.025-2.291.128-3.406.286l-.203.031c-2.01.302-3.949.808-5.795 1.504-.627.236-1.245.491-1.852.77l-.515.248-.624.305c-1.832.943-3.543 2.084-5.113 3.384l-.057.047c-1.355 1.124-2.601 2.37-3.725 3.724-.322.387-.633.781-.934 1.185-.355.476-.698.962-1.025 1.46-.615.94-1.176 1.92-1.68 2.935-.178.356-.352.715-.514 1.079l-.086.209c-1.037 2.373-1.764 4.913-2.123 7.564-.07.52-.129 1.044-.172 1.573l-.015.198c-.031.419-.052.84-.065 1.264-.016.518-.019 1.039-.006 1.562l.012.248c.014.407.029.811.06 1.214l.022.212.025.279c.027.318.057.635.094.946l.013.071.001.021.002.003.07.473.127.848.121.606.16.785.158.631.035.147.057.219.043.167.053.202.195.649.213.685.234.66.064.176.172.473.273.666.256.607.158.337.156.335.275.57.357.678.285.528.404.687.291.482.452.685.299.446.499.688.301.402c.178.234.363.463.551.689l.297.361c.195.232.396.459.602.687l.291.319c.213.232.432.459.654.68l.283.283c.23.227.471.45.708.67l.271.246c.25.223.506.441.766.656l.254.212c.27.221.545.433.822.644l.237.179c.29.211.581.417.877.619l.221.149c.306.205.616.406.931.599l.2.12c.325.199.657.385.991.57l.172.097c.346.187.695.363 1.047.537l.15.071c.363.176.729.342 1.1.503l.131.058c.38.158.763.31 1.148.457l.107.038c.398.146.795.284 1.201.414l.082.027.598.172.652.19.061.017c.43.112.861.214 1.297.308l.037.011.008.002c.439.093.885.177 1.332.247l.021.007c1.375.221 2.783.345 4.216.362.341.006.683.01 1.024.006.459-.012.93-.041 1.402-.08.646-.052 1.299-.129 1.958-.229.581-.086 1.159-.188 1.737-.309.9-.186 1.789-.405 2.646-.654 2.57-.747 4.842-1.742 6.199-2.756 0 0-.893-3.956-1.648-7.975l-.241-1.316z"/><polygon fill="#90694C" points="212.24,93.879 212.244,93.881 212.233,93.874"/><path fill="#2F83C1" d="M159.311 40.324l-.326-4.007 2.006-4.439.793-.179c-1.314-.609-2.875-1.045-4.683-1.27-3.618-.456-8.214-.037-13.448 1.315-5.235 1.345-11.105 3.604-17.33 6.704-12.451 6.196-26.312 15.745-39.65 27.913-4.654 4.244-8.994 8.58-12.984 12.93-3.875 4.219-7.42 8.451-10.6 12.626-6.458 8.476-11.408 16.72-14.569 24.073-2.11 4.9-3.417 9.402-3.894 13.255-.352 2.802-.26 5.251.209 7.275.152.655.354 1.25.58 1.819.472 1.195 1.092 2.227 1.893 3.109l8.07 8.454.865.905.057-.062c.246-.284.498-.568.754-.847l.068-.074.283-.29c.242-.253.486-.506.736-.753l.471-.449.459-.438.215-.188.504-.441c.236-.204.473-.406.717-.605l.43-.346.062-.049.775-.592.494-.363.82-.567.498-.33c.283-.185.572-.363.861-.54l.5-.301c.303-.178.609-.346.916-.514l.488-.266.185-.098.011-.033c1.932-5.349 4.826-11.155 8.578-17.206 4.609-7.431 10.498-15.225 17.49-22.986 4.396-4.883 9.225-9.753 14.438-14.509 6.744-6.147 13.619-11.632 20.4-16.385 4.568-3.201 9.088-6.053 13.5-8.554l1.254-.712c1.176-.651 2.34-1.269 3.498-1.865 2.52-1.303 4.996-2.484 7.41-3.528l-1.184-1.422-.195-.233-1.454-1.748-8.347-10.037.076-7.18-.092-.104 5.889-1.756 11.503 5.888z"/><path fill="#FCE9CD" d="M256.062 208.396l.004-.002s.203-1.522-.602-2.885l-.018-.037-.148-.228-.053-.079c-.088-.119-.195-.233-.305-.348-.197-.207-.428-.401-.701-.574-.143-.094-.297-.181-.463-.262-.457-.219-1.004-.385-1.654-.479-.475-.069-1.018-.089-1.609-.071-.238.009-.475.014-.732.037l-.117.007.043.157.115.431.059.236c.084.337.186.765.288 1.249l-.105.275-.04.094c-.297.688-1.102 2.277-2.895 4.344-.305.352-.643.72-1.006 1.098-5.002 5.168-15.827 12.526-38.602 16.644-7.729 1.09-14.854 1.15-20.939.394-8.999-1.119-15.742-3.994-18.879-7.86-.272-.332-.521-.674-.758-1.02-.176-.255-.345-.513-.5-.773l-.162-.29c-1.349-2.383-1.936-4.981-1.902-7.497.043-3.055.996-5.978 2.609-8.225 1.309-1.822 3.049-3.199 5.084-3.835.998-.312 2.064-.451 3.186-.375.227.016.525.048.898.094l3.075.406.427.054c4.273.531 11.08 1.173 19.311.671 14.975-.912 34.684-5.624 52.58-21.762l.049-.063v-.028c.061-1.352-.121-3.793-1.828-5.691-.299-.332-.646-.646-1.043-.938-.227-.166-.462-.325-.724-.473-.263-.146-.503-.293-.735-.441-.316-.198-.615-.396-.881-.594l-.039-.057-.373-.562c-4.643-7.03-11.037-11.111-13.588-12.981-1.203-.885-1.969-1.287-1.969-1.287-5.521-3.364-6.332-4.48-5.816-13.616.186-3.29.541-7.614.908-13.477.049-.763.072-1.487.085-2.199l.007-.503c.006-.673-.002-1.33-.027-1.961l-.006-.181-.016-.194c-.027-.496-.062-.978-.104-1.446l-.061-.616c-.055-.501-.117-.988-.195-1.458l-.13-.705-.157-.772-.17-.736-.002-.006.002-.002v.002c-.074-.295-.16-.573-.241-.853l-.087-.307-.094-.274-.031-.093-.094-.268-.004-.019-.234-.631-.025-.068-.08-.193-.096-.239-.021-.046v-.006c-.166-.388-.34-.764-.523-1.115l-.146-.26c-.209-.346-.424-.67-.643-.982l-.088-.131-.109-.146c-.156-.215-.314-.426-.473-.623l-.216-.271c-.212-.251-.423-.494-.636-.721l-.002-.002c-.261-.275-.521-.535-.787-.775-.305-.189-.604-.359-.904-.509l-.297-.133c-.197-.093-.398-.183-.598-.257l-.344-.117-.539-.162-.355-.078-.521-.093-.355-.04-.518-.032-.346-.003-.529.025-.324.029-.236.035-.326.052-.283.052c-.219.045-.436.102-.652.163l-.189.05c-.57.17-1.139.388-1.701.644l-.188.089-.658.319-.252.136-.596.324-.27.158-.586.35-.266.164-.613.391-.227.148-.693.462-.139.093-.787.541-.01.008-.041.025h.003l-1.479 1.029c-.416.29-.84.58-1.266.868l-.205.141c-.43.288-.863.569-1.299.849l-.219.138c-.438.271-.877.537-1.32.788l-.232.13c-.445.251-.898.484-1.355.709l-.228.106c-.462.221-.935.425-1.411.605l-.197.074c-.492.181-.992.346-1.5.479l-.133.031c-.537.138-1.074.249-1.626.323-.927.126-1.853.166-2.784.171-1.516.007-3.037-.116-4.564-.344-.51-.077-1.023-.167-1.535-.261l-.543-.097c-1.332-.259-2.672-.568-4.021-.894l-1.701-.41c-.914-.223-1.838-.438-2.762-.648l-.545-.128.009-.001-.392-.082-.613-.135-.588-.117-.102-.021-.068-.013-.54-.107c-.419-.079-.841-.153-1.263-.224l-.375-.057-.939-.14-.475-.057-.035-.004-.82-.094-.545-.05-.248-.019-.562-.04-.541-.03-.857-.023-.258-.004-.24-.004c-.354.001-.713.008-1.072.023l-.286.009c-.456.02-.914.056-1.374.104l-.359.042c-.297.035-.595.075-.894.121l-.134.019-.49.084c-.307.057-.609.115-.916.182l-.529.122c-.302.072-.607.153-.912.239l-.521.15c-.329.1-.657.212-.987.329l-.449.157c-.482.178-.961.372-1.447.588-3.795 2.185-7.055 5.167-9.646 8.646-.863 1.158-1.653 2.373-2.363 3.631-.752 1.332-1.404 2.715-1.971 4.133-.166.413-.324.827-.475 1.247-.248.707-.484 1.42-.686 2.142l-.059.233c-.223.813-.414 1.634-.572 2.461-.168.864-.296 1.733-.393 2.606-.052.472-.1.943-.131 1.416-.082 1.271-.072 2.548.004 3.821l.023.346c.021.326.033.649.068.975.094.906.223 1.812.404 2.711.064.333.154.645.234.965.075.307.143.622.225.921v-.002c.634 2.296 1.549 4.364 2.635 6.243 4.135 7.145 10.934 11.416 15.859 13.709 1.916.845 3.916 1.6 5.994 2.263l-.25.164c-.367.092-.797.206-1.273.341-.721.203-1.553.456-2.471.766-1.031.347-2.168.765-3.367 1.261-3.197 1.325-6.826 3.209-10.043 5.812-.402.324-.798.66-1.186 1.008-.66.594-1.289 1.227-1.895 1.89l-.209.224-.271.311c-.229.267-.454.54-.674.818l-.264.335c-.289.382-.57.769-.838 1.171-.262.394-.514.801-.752 1.214-1.906 3.327-2.986 7.31-2.654 12.06l.01-.049.006-.035.035-.177.01-.039.057-.251.014-.059.092-.367.023-.088.131-.469.002-.002.164-.529.037-.113.205-.588.039-.098.23-.592.039-.094.293-.675.066-.144c.111-.234.225-.473.352-.714v-.001l.016-.027c.188-.36.4-.728.626-1.097l.261-.419.072-.117.002-.003c.193-.289.396-.578.615-.863.178-.234.367-.466.562-.697l.191-.216c.156-.176.318-.351.486-.522l.206-.208c.229-.225.466-.445.716-.658l.021-.02v0s-4.325 9.788-2.444 17.549l-.002-.064v-.049l-.002-.158-.001-.042.005-.282.002-.043.014-.386.002-.042.03-.479.003-.043.051-.554.006-.048.076-.61.008-.058.115-.699.01-.058.023-.121v-.005c.053-.271.116-.548.188-.828l.014-.057c.074-.273.152-.551.24-.83l.082-.256.061-.178v-.003c.082-.229.172-.458.269-.687l.016-.037.001-.002c.135-.318.293-.628.461-.935l.138-.241c.179-.303.367-.6.581-.881l.009-.014v0h.001s-.248 2.409-.184 5.277c.012.451.033.915.062 1.382.019.312.038.624.067.937.191-3.082.754-5.978 1.574-8.677-.82 2.701-1.383 5.596-1.573 8.68v.001c-.124 1.967-.097 4.008.106 6.123.344 3.526 1.182 7.257 2.657 11.184 0 0-1.353-4.516.597-9.032.176.411.363.824.561 1.241.16 1.34.43 3.243.824 5.339.377 3.49 2.047 13.964 9.162 21.329 0 0-2.689-3.488-2.271-8.031.281.597.56 1.135.824 1.599 1.217 2.278 3.638 6.521 6.277 9.462 0 0-2.142-4.146-1.643-5.041 0 0 6.982 8.683 9.203 9.529l-2.92-4.842-.066-.143c10.146 7.357 24.066 10.088 41.283 5.294 2.959-.825 6.016-1.872 9.167-3.157 1.935-.837 3.849-1.756 5.743-2.774l.275-.153c1.326-.725 2.641-1.503 3.945-2.324l.029-.018c.98-.617 1.951-1.263 2.912-1.933 1.609-1.135 3.203-2.328 4.756-3.626l.004-.002.006-.006.275-.234c1.539-1.345 2.98-2.729 4.318-4.137 1.768-1.859 3.355-3.76 4.793-5.665l.105-.138c.352-.47.695-.938 1.029-1.4l.094-.137.313-.467c.464-.668.923-1.337 1.353-2.001l.312-.48.652-1.052.485-.814.521-.881c.302-.531.596-1.059.877-1.582l.324-.615c.215-.408.426-.811.625-1.21l.277-.558.082-.175c.25-.503.488-1.003.719-1.494l.043-.104c.867-.809 1.541-1.578 2.082-2.314l.232-.313c1.2-1.73 1.593-3.263 1.614-4.638z"/><path fill="#FCE9CD" d="M94.314 182.828c-.301.094-.639.491-.979 1.033-.127.202-.252.425-.377.659-.91 1.71-1.73 4.082-1.73 4.082.064-.793.151-1.614.248-2.44l.037-.287c.102-.841.219-1.689.344-2.532l.045-.303c.146-.95.3-1.894.46-2.805l.062-.352.012-.06.057-.317.084-.469c.131-.722.266-1.42.396-2.082.119-.598.234-1.164.346-1.697l.035-.172.051-.24.049-.239.006-.028.086-.396.008-.034.074-.349.118-.542.011-.048.089-.407.114-.51.002-.005.002-.004.059-.254.004-.016.051-.223.102-.437.025-.104.01-.038.029-.123.02-.085.004-.012-.014.011-.184.167c-.162.145-.328.285-.48.445l-.167.184c-.179.2-.353.41-.515.633l-.086.108c-.201.28-.389.574-.566.873v.001l-.022.039-.001.002-.072.133-.119.222-.301.559-.005.007-.003.006-.006.017-.035.07-.033.071c-.145.299-.275.596-.398.889-.348.824-.617 1.609-.818 2.266l-.189.648c-.117.423-.199.754-.236.916l-.002.015-.025.108v0l.01-.127.062-.752c.039-.525.072-1.054.131-1.576.046-.439.113-.87.176-1.307l.061-.408.088-.602.105-.555.002-.014v-.001l.039-.205.012-.056.127-.677.049-.261.031-.155.006-.028.047-.221.062-.268.23-.977.014-.055.172-.723.002-.011.006-.017.02-.069c.127-.49.268-.97.408-1.452l.037-.133.037-.133.078-.273c.233-.783.482-1.557.747-2.312l.034-.095c.227-.642.457-1.273.697-1.896l.027-.071.328-.808.018-.04c.164-.404.326-.811.494-1.201l.001-.004v-.002l.003-.006.02-.049.311-.686.003-.006.022-.047v-.002l.184-.411.297-.662.09-.192-.432-.216-.082-.041-.152-.077c-.936-.448-1.92-.807-2.939-1.071l-.162-.04c-.654-.163-1.322-.288-2.004-.367-.395-.045-.791-.081-1.193-.098-.334-.014-.668-.018-1.006-.011-.508.011-1.008.054-1.5.108l-.461.066-.727.128-.287.054-.506.114c-.33.081-.652.172-.973.273l-.441.136c-.434.152-.859.318-1.275.503l-.481.235-.565.29-.193.099-.605.357c-.186.113-.372.232-.551.355-.221.146-.436.292-.645.446l-.381.3c-.34.27-.663.559-.98.854l-.479.467c-.278.275-.55.557-.804.852l-.129.148c-.135.16-.26.329-.385.496l-.02.023-.016.022-.261.334-.032.045-.033.045-.002.004-.002.003c-.514.718-.963 1.482-1.354 2.277l-.162.347c-.18.39-.346.787-.496 1.193l-.18.479-.002.002v.002l-.002.002c-.137.413-.258.832-.361 1.264l-.039.16-.038.203-.005.018c-.07.312-.139.624-.188.941l-.062.473-.007.045-.054.508-.044.387c-.037.5-.053 1.004-.041 1.515.01.395.045.783.082 1.172l.003.022.013.181.09.64c.115.775.273 1.533.496 2.266.166.56.361 1.104.586 1.635.412.976.924 1.895 1.51 2.759 1.23 1.823 2.812 3.385 4.66 4.576 1.049.675 2.182 1.224 3.377 1.644 1.148.406 2.347.701 3.596.838.281.029.564.051.85.07.426.028.852.046 1.285.037.4-.009.789-.059 1.182-.096.225-.021.455-.023.678-.055.564-.078 1.119-.193 1.664-.33l.123-.026.657-.21c.687-.209 1.351-.461 1.995-.758l.141-.062c.18-.077.365-.151.539-.24l.021-.008c-.315-1.734-.554-3.515-.725-5.334l-.049-.381z"/><polygon points="54.023,193.396 54.01,193.376 54.01,193.379 54.016,193.386 54.031,193.411" fill="none"/><polygon fill="#4D9ED7" points="161.822,41.609 162.121,41.761 162.116,41.721"/><path fill="#fff" d="M249.881 204.299l-.059-.236-.115-.431c-.49-1.591-1.111-2.834-1.664-3.72-.707-1.145-1.293-1.709-1.293-1.709.118-.403.211-.796.295-1.184.107-.507.191-1.003.248-1.483.426-3.627-.545-6.449-1.322-8.042-.124-.255-.24-.475-.348-.665-.561.398-1.127.791-1.693 1.174-10.752 7.28-22.854 11.951-35.957 13.959-9.029 1.384-18.529 1.513-28.406.311l.172.051s-5.953.814-7.568 6.525l.102.059-.492 3.83c.174 5.187 2.545 8.433 5.244 10.141 2.805 1.07 6.191 1.886 9.953 2.354 6.547.813 14.061.599 21.73-.619l.039-.006.039-.006c10.201-1.367 24.6-6.814 34.893-13.846 2.346-1.602 4.479-3.283 6.299-5.021l.068-.066.124-.12c-.104-.486-.205-.913-.289-1.25z"/><path fill="#F2D2AC" d="M230.42 154.867c-5.521-3.364-6.332-4.48-5.816-13.616.186-3.29.541-7.614.908-13.477.049-.763.072-1.487.085-2.199l.007-.503c.006-.673-.002-1.33-.027-1.961l-.006-.181-.016-.194c-.027-.496-.062-.978-.104-1.446l-.061-.616c-.055-.501-.117-.988-.195-1.458l-.13-.705-.157-.772-.17-.736-.002-.003.002-.002c-.787-1.171-1.723-2.217-2.818-3.105l-.215-.16-.043-.033-.162-.121-.055-.041c-.158-.121-.324-.24-.488-.35l-.533-.34c-1.633-.993-3.453-1.617-5.4-1.906-1.076-.158-2.191-.214-3.334-.17-.531.02-1.068.066-1.609.13-1.408.165-2.85.466-4.313.911l-1.479 1.029c-.416.29-.84.58-1.266.868l-.205.141c-.43.288-.863.569-1.299.849l-.219.138c-.438.271-.877.537-1.32.788l-.232.13c-.445.251-.898.484-1.355.709l-.228.106c-.462.221-.935.425-1.411.605l-.197.074c-.492.181-.992.346-1.5.479l-.133.031c-.537.138-1.074.249-1.626.323-.927.126-1.853.166-2.784.171-1.516.007-3.037-.116-4.564-.344-.51-.077-1.023-.167-1.535-.261l-.543-.097c-1.332-.259-2.672-.568-4.021-.894l-1.701-.41c-.914-.223-1.838-.438-2.762-.648l-.545-.128c-.774.042-1.553.118-2.334.216l-.17.021c-2.266.297-4.545.837-6.797 1.615l-.373.125c-.352.125-.701.263-1.051.4-.469.186-.938.379-1.402.585-3.262 1.439-6.43 3.399-9.375 5.889-1.193 1.01-2.309 2.078-3.354 3.188-1.604 1.705-3.021 3.521-4.264 5.409l-.203.316c-.662 1.027-1.27 2.074-1.818 3.14-.198.38-.398.761-.58 1.145l-.037.075c-.592 1.254-1.105 2.527-1.547 3.813l-.069.23-.17.561c-.188.598-.362 1.198-.521 1.798-.16.623-.312 1.248-.438 1.874l-.078.403c-.072.382-.141.764-.201 1.146-.213 1.404-.33 2.807-.359 4.2-.01.35-.023.703-.02 1.05.634 2.296 1.549 4.364 2.635 6.243 4.135 7.145 10.934 11.416 15.859 13.709 1.916.845 3.916 1.6 5.994 2.263l.053.09.002.002.01-.005.134-.103.804-.604.293-.217c.279-.204.566-.412.859-.615l.299-.206c.294-.205.596-.413.904-.616l.309-.203c.311-.206.627-.411.951-.615l.32-.2.992-.606.348-.207 1.024-.592.377-.211c.343-.193.692-.384 1.048-.573l.426-.226c.35-.186.705-.37 1.064-.552l.464-.232 1.085-.532.523-.247c.358-.169.721-.337 1.09-.504l.588-.263 1.09-.474.658-.278 1.086-.445.74-.292 1.074-.414.822-.307 1.059-.385.918-.318 1.039-.353 1.016-.33 1.012-.323 1.135-.345.965-.285 1.252-.354.625-.176c1.635-4.115 6.488-14.323 14.801-15.44.895-.129 1.701-.176 2.465-.184l.578-.012c-.096-.592-.172-1.209-.211-1.851-.26-4.397 1.092-8.054 3.02-8.17 1.492-.121 2.68 2.06 2.883 2.822.566 1.337.965 3.045 1.08 4.94.102 1.73-.059 3.328-.389 4.661.168.173.307.364.457.549 1.904 2.363 2.227 5.64 2.148 7.962.74-.074 1.5-.14 2.26-.205l.58-.054.12-.011.329-.026c.939-.078 1.891-.15 2.855-.22l.043-.002c2.186-.152 4.43-.281 6.744-.38-1.205-.879-1.971-1.282-1.971-1.282z"/><path fill="#F2D2AC" d="M251.338 216.437c-3.637 3.238-7.445 5.839-11.223 7.926-1.887 1.039-3.76 1.94-5.605 2.742-4.102 1.787-8.037 3.029-11.504 3.874-7.65 1.864-13.047 1.868-13.047 1.868 4.184 2.314 9.48 2.336 13.113 1.97 2.5-.249 4.219-.68 4.219-.68-.078 1.536-.27 2.949-.544 4.269-.304 1.46-.72 2.786-1.218 3.999l-.039.104-.004.007c-.623 1.5-1.373 2.816-2.209 3.977l-.271.38.275-.153c1.326-.725 2.641-1.503 3.945-2.324l.029-.018c.98-.617 1.951-1.263 2.912-1.933 1.609-1.135 3.203-2.328 4.756-3.626l.004-.002.006-.006.275-.234c1.539-1.345 2.98-2.729 4.318-4.137 1.768-1.859 3.355-3.76 4.793-5.665l.105-.138c.352-.47.695-.938 1.029-1.4l.094-.137.313-.467c.464-.668.923-1.337 1.353-2.001l.312-.48.652-1.052.485-.814.521-.881c.302-.531.596-1.059.877-1.582l.324-.615c.215-.408.426-.811.625-1.21l.277-.558.082-.175c.25-.503.488-1.003.719-1.494l-.749.666z"/><path fill="#F2D2AC" d="M160.174 176.159c-1.031.347-2.168.765-3.367 1.261-3.197 1.325-6.826 3.209-10.043 5.812-.402.324-.798.66-1.186 1.008-.66.594-1.289 1.227-1.895 1.89l-.209.224-.271.311c-.229.267-.454.54-.674.818l-.264.335c-.289.382-.57.769-.838 1.171-.262.394-.514.801-.752 1.214-1.906 3.327-2.986 7.31-2.654 12.06l.01-.049.006-.035.035-.177.01-.039.057-.251.014-.059.092-.367.023-.088.131-.469.002-.002.164-.529.037-.113.205-.588.039-.098.23-.592.039-.094.293-.675.066-.144c.111-.234.225-.473.352-.714v-.001l.016-.027c.188-.36.4-.728.626-1.097l.261-.419.072-.117.002-.003c.193-.289.396-.578.615-.863.178-.234.367-.466.562-.697l.191-.216c.156-.176.318-.351.486-.522l.206-.208c.229-.225.466-.445.716-.658l.021-.02v0s-4.325 9.788-2.444 17.549l-.002-.064v-.049l-.002-.158-.001-.042.005-.282.002-.043.014-.386.002-.042.03-.479.003-.043.051-.554.006-.048.076-.61.008-.058.115-.699.01-.058.023-.121v-.005c.053-.271.116-.548.188-.828l.014-.057c.074-.273.152-.551.24-.83l.082-.256.061-.178v-.003c.082-.229.172-.458.269-.687l.016-.037.001-.002c.135-.318.293-.628.461-.935l.138-.241c.179-.303.367-.6.581-.881l.009-.014v0h.001s-.248 2.409-.184 5.277c.012.451.033.915.062 1.382.019.312.038.624.067.937.191-3.082.754-5.978 1.574-8.677.229-.744.479-1.47.744-2.185l.111-.309c.256-.676.527-1.334.811-1.982l.162-.362c.289-.641.588-1.269.9-1.882l.148-.281c.664-1.279 1.377-2.496 2.117-3.647l.162-.253c.281-.431.57-.846.859-1.258l.225-.332.207-.289c.367-.508.736-1.003 1.109-1.482l.178-.225c.389-.492.775-.972 1.164-1.43l.021-.025c.49-.579.979-1.132 1.463-1.659.355-.386.708-.757 1.057-1.115l.402-.402c.834-.842 1.639-1.599 2.389-2.269 2.25-2.014 4.002-3.258 4.613-3.671-.367.092-.797.206-1.273.341-.721.204-1.553.457-2.471.766z"/><path fill="#F2D2AC" d="M217.715 154.485s-.023-.25-.113-.627c-.352-1.432-1.766-4.807-7.335-4.272-5.821.561-7.776 5.258-8.278 6.86-.104.332-.148.541-.148.541l.158.135c.738-.627 2.146-.553 3.424.258.584.371 1.049.839 1.367 1.332v.002c.492.758.629 1.575.281 2.183-.074.13-.167.239-.274.337 0 0 .224.086.603.195 1.617.478 6.104 1.418 8.531-1.717.117-.15.236-.291.344-.459-.479-.244-.745-.945-.746-1.776-.004-.399.051-.827.18-1.255.396-1.317 1.297-2.095 2.006-1.737z"/><path fill="#F2D2AC" d="M188.852 197.252c-3.768.777-7.062 1.356-9.618 1.769l.427.054c4.273.531 11.08 1.173 19.311.671 14.975-.912 34.684-5.624 52.58-21.762l.049-.063v-.028c.061-1.352-.121-3.793-1.828-5.691-.299-.332-.646-.646-1.043-.938l-.197-.122c-.471-.263-.88-.528-1.262-.792-.316-.198-.615-.396-.881-.594l-.039-.057c-1.1 1.582-2.375 3.087-3.803 4.52-.506.506-1.043.994-1.584 1.482-4.938 4.447-11.318 8.152-18.205 11.203-11.447 5.068-24.238 8.357-33.907 10.348z"/><path fill="#F2D2AC" d="M94.068 171.171c-.162.145-.328.285-.48.445l-.167.184c-.179.2-.353.41-.515.633l-.086.108c-.201.28-.389.574-.566.873v.001l-.022.039-.001.002-.072.133-.119.222-.301.559-.005.007-.003.006-.006.017-.035.07-.033.071c-.145.299-.275.596-.398.889-.348.824-.617 1.609-.818 2.266l-.189.648c-.117.423-.199.754-.236.916l-.002.015-.025.108v0l.01-.127.062-.752c.039-.525.072-1.054.131-1.576.046-.439.113-.87.176-1.307l.061-.408.088-.602.105-.555.002-.014v-.001l.039-.205.012-.056.127-.677.049-.261.031-.155.006-.028.047-.221.062-.268.23-.977.014-.055.172-.723.002-.011.006-.017.02-.069c.127-.49.268-.97.408-1.452l.037-.133.037-.133.078-.273c.233-.783.482-1.557.747-2.312l.034-.095c.227-.642.457-1.273.697-1.896l.027-.071.328-.808.018-.04c.164-.404.326-.811.494-1.201l.001-.004v-.002l.003-.006.02-.049.311-.686.003-.006.022-.047v-.002l.184-.411.297-.662.09-.192-.432-.216-.082-.041-.152-.077c-.936-.448-1.92-.807-2.939-1.071l-.162-.04c-.654-.163-1.322-.288-2.004-.367-.395-.045-.791-.081-1.193-.098-.334-.014-.668-.018-1.006-.011-.508.011-1.008.054-1.5.108l-.461.066-.727.128-.287.054-.506.114c-.33.081-.652.173-.973.273l-.441.136c-.434.152-.859.318-1.275.503l-.481.236-.565.289-.193.099-.605.357c-.186.113-.372.232-.551.355-.221.146-.436.292-.645.446l-.381.3c-.34.27-.663.559-.98.854l-.479.467c-.278.275-.548.557-.804.852l-.129.148c-.135.16-.26.329-.385.496l-.02.023-.016.022-.261.335-.032.044-.033.045-.002.004-.002.003c-.514.721-.963 1.484-1.354 2.281l-.16.343c-.182.39-.346.787-.498 1.193l-.18.479-.002.002v.002l.098.307c.111.36.225.711.344 1.051l.041.117.045.118c.125.35.254.685.387 1.012.404 1.001.83 1.896 1.252 2.687l.189.35.045.083.059.099c.318.565.629 1.064.918 1.501.46.694.863 1.222 1.15 1.578l.166.202.119.137.177.199-.101-.533c-.26-1.276-.395-2.538-.428-3.772l-.001-.073-.003-.144c-.014-.791-.002-1.574.061-2.337h.002c.08.293.168.576.256.856.133.422.27.833.412 1.228l.049.143.02.051c.623 1.686 1.332 3.102 1.996 4.242.794 1.367 1.521 2.335 1.955 2.867l.225.268.191.216c-.314-1.356-.473-2.698-.523-4.012-.018-.443-.033-.886-.025-1.319.008-.555.037-1.102.082-1.641v0c.242.922.52 1.775.816 2.579l.021.062c1.066 2.892 2.384 5.018 3.293 6.277l.104.139.424.557.236.291.208.244.108.124-.037-.188-.117-.566c-.131-.678-.217-1.352-.281-2.018-.043-.445-.084-.89-.1-1.328-.016-.418-.014-.83-.008-1.241l.006-.222.023-.637.008-.131.008-.094c.033-.541.08-1.076.146-1.602v0c.104.349.213.688.324 1.016l.26.727.02.049.029.083.053.146c.107.286.219.561.332.832.215.508.43.986.65 1.436.268.553.539 1.062.803 1.529l.443.748c.184.299.361.576.531.828l.439.628.104.143.361.478.227.283.363.423.033.035.113.078.037-.287c.102-.841.219-1.689.344-2.532l.045-.303c.146-.95.3-1.894.46-2.805l.062-.352.012-.06.057-.317.084-.469c.131-.722.266-1.42.396-2.082.119-.598.234-1.164.346-1.697l.035-.172.051-.24.049-.239.006-.028.086-.396.008-.034.074-.349.118-.542.011-.048.089-.407.114-.51.002-.005.002-.004.059-.254.004-.016.051-.223.102-.437.025-.104.01-.038.029-.123.02-.085.004-.012-.014.011-.19.168z"/><path fill="#F2D2AC" d="M215.258 213.005c1.412-.488 2.643-.883 3.596-1.299 1.912-.814 2.939-1.363 2.875-1.566-.064-.207-1.219-.051-3.25.408l-3.666.764c-.703.168-1.481.266-2.287.422-.812.141-1.666.318-2.568.416-1.779.252-3.814.481-5.975.732l-3.295.27-3.516.174c-4.807.141-10.113-.077-15.512-1.07-2.848-.501-6.652-1.794-9.389-3.348l-.102-.059c1.615-5.711 7.568-6.525 7.568-6.525l-.172-.051-.301-.033c-.865-.107-1.627-.211-2.279-.299l-1.221-.161c-.332-.041-.568-.066-.707-.075-3.586-.246-5.551 2.791-6.229 4.107l-.276.584c-.518 1.18-.861 2.54-.954 3.979-.177 2.684.515 5.631 2.571 8.14 1.371 1.692 3.758 3.185 6.854 4.364-2.699-1.708-5.07-4.954-5.244-10.141 3.057 1.313 6.619 2.117 9.295 2.594 5.73 1.056 11.262 1.182 16.232.877 1.242-.104 2.451-.195 3.625-.312l3.422-.443c2.151-.363 4.137-.714 6-1.125.93-.174 1.791-.429 2.607-.651.817-.239 1.591-.417 2.298-.673z"/><path fill="#664F44" d="M210.504 146.163c2.994.07 5.027 1.021 6.383 2.403.33-1.333.492-2.931.387-4.662-.115-1.894-.512-3.602-1.078-4.94-.201-.762-1.391-2.942-2.885-2.822-1.928.117-3.275 3.773-3.016 8.171.037.641.111 1.257.209 1.85z"/><path fill="#664F44" d="M215.561 157.502c.004.832.27 1.532.746 1.776.717.357 1.609-.425 2.006-1.742l.086-.343v-.003c.254-1.197-.006-2.355-.65-2.68-.709-.359-1.609.42-2.006 1.735-.13.43-.184.858-.182 1.257z"/><path fill="#664F44" d="M201.966 159.624c.317.517.796 1.016 1.407 1.406 1.293.819 2.729.889 3.457.229.107-.096.201-.209.273-.338.35-.606.213-1.424-.277-2.183l-.002-.002c-.318-.491-.783-.96-1.367-1.331-1.277-.812-2.686-.887-3.424-.258-.121.104-.23.221-.311.361-.333.589-.209 1.374.244 2.116z"/><g fill="#664F44"><path d="M251.6 177.925v-.027l-.084.122.037-.03.047-.065zM250.047 205.674l-.068.065c-1.82 1.737-3.955 3.42-6.299 5.021-10.293 7.031-24.691 12.479-34.895 13.846l-.039.006-.039.006c-7.67 1.219-15.184 1.433-21.73.619-3.762-.469-7.146-1.283-9.953-2.354-3.094-1.18-5.48-2.671-6.854-4.363-2.057-2.509-2.748-5.455-2.57-8.14.094-1.438.438-2.8.955-3.979l.275-.584c.68-1.316 2.643-4.354 6.23-4.108.137.011.375.034.705.076l1.223.161c.65.088 1.414.19 2.279.298l.299.034c9.877 1.202 19.377 1.073 28.406-.311 13.104-2.008 25.207-6.68 35.957-13.959.568-.384 1.133-.775 1.693-1.175l5.893-8.814c-17.885 16.112-37.578 20.818-52.545 21.73-8.23.503-15.037-.139-19.309-.67l-.429-.055-3.073-.405c-.373-.047-.674-.079-.9-.094-1.121-.076-2.188.062-3.184.375-2.037.637-3.777 2.012-5.084 3.835-1.615 2.247-2.566 5.169-2.611 8.225-.031 2.515.554 5.114 1.904 7.497l.161.291c.155.261.323.518.499.771.236.346.485.688.76 1.021 3.135 3.865 9.879 6.741 18.877 7.86 6.088.757 13.213.695 20.941-.395 22.773-4.116 33.6-11.475 38.6-16.644.365-.377.701-.744 1.007-1.097 1.792-2.066 2.599-3.656 2.894-4.344l.041-.094.105-.276-.122.124z"/></g><path fill="#E9B784" d="M177.572 126.696c-.719-.391-1.502-.67-2.293-.866-.523-.129-1.049-.221-1.568-.285l-.584-.059c-2.666-.232-4.971.218-4.971.218-.494.113-.969.241-1.426.381-3.621 1.099-6.143 2.984-7.904 5.16-1.426 1.761-2.354 3.711-2.945 5.594l-.146.495c-.139.488-.26.968-.361 1.438-.334 1.583-.463 3.043-.5 4.198-.045 1.58.078 2.598.078 2.598.629-1.38 1.289-2.646 1.969-3.831 1.688-2.938 3.516-5.305 5.364-7.207 3.601-3.704 7.269-5.659 10.112-6.686 3.07-1.11 5.175-1.148 5.175-1.148z"/><path fill="#E9B784" d="M220.828 121.539l-.121-.159c-.408-.515-.895-.99-1.477-1.389-1.375-.945-3.273-1.438-5.904-.899 0 0-3.123.737-4.949 2.78 0 0 5.443-2.324 11.205 1.771.525.373 1.052.805 1.578 1.292.537.497 1.072 1.049 1.605 1.676 0 0-.229-2.51-1.658-4.673l-.279-.399z"/><path fill="#664F44" d="M178.23 161.394c2.086-.645 4.346-1.239 6.766-1.787.421-1.885.525-4.218.227-6.708-.688-5.842-3.324-10.318-5.883-10.001-2.561.316-4.072 5.308-3.381 11.147.348 2.94 1.191 5.538 2.271 7.349z"/><path fill="#FFD250" d="M166.357 30.664l-5.367 1.214 1.126 9.844-14.308-7.282-5.889 1.756.092.104 17.379 19.808.166-.104.225-.141c.541-.345 1.083-.688 1.629-1.027l.572-.36c.787-.483 1.576-.958 2.368-1.43l-7.382-8.456 11.945 5.84.045-.025 1.076-.59-1.102-8.529 5.42 6.27.066-.032 1.359-.673.141-.068.219-.109.232-.115.578-.285.115-.055c.643-.311 1.273-.606 1.904-.902l-12.609-14.653z"/><polygon fill="#4D9ED7" points="161.025,32.189 160.99,31.877 161.025,32.19"/><path fill="#4D9ED7" d="M160.99 31.877l.793-.179c-1.314-.609-2.875-1.045-4.683-1.27-3.618-.456-8.214-.037-13.448 1.315-5.235 1.345-11.105 3.604-17.33 6.704-12.451 6.196-26.312 15.745-39.65 27.913-4.654 4.244-8.994 8.58-12.984 12.93l16.201 19.844c4.375-4.828 9.148-9.629 14.292-14.321 6.878-6.271 13.892-11.866 20.825-16.728 6.719-4.707 13.355-8.703 19.744-11.937l-2.814-12.671.076-7.18-.092-.104 5.889-1.756 11.502 5.885-.326-4.007 2.005-4.438z"/><polygon fill="#132134" points="160.99,31.877 158.984,36.317 159.311,40.324 162.116,41.721"/><polygon fill="#132134" points="156.969,44.588 168.914,50.428 164.351,53.044"/><polygon fill="#132134" points="168.934,41.284 170.035,49.813 174.354,47.553"/><path fill="#fff" d="M214.127 38.131c.736-.029 1.457-.037 2.166-.022 2.01.041 3.898.278 5.688.726l.291.064.021.006.07.016.176.051.162.049c-.211-.14-.426-.272-.645-.401-2.008-.769-4.133-1.271-6.318-1.552-10.842-1.395-23.186 2.552-30.244 5.355l-1.172.49c-.594.254-1.191.512-1.797.778-1.018.448-2.047.917-3.1 1.407l-.457.215c-.631.296-1.262.592-1.904.902l-.115.055-.578.285-.232.115-.219.109-.141.068-1.359.673-.066.032-.041.021-.332.163-.059.028-.248.13c-.703.356-1.402.724-2.1 1.093l-1.461.781-.078.043-1.076.59-.045.025c-1.168.646-2.328 1.305-3.486 1.981l-.363.209-.309.182-.283.171-.122.073c-.792.472-1.581.946-2.368 1.43l-.572.36c-.546.339-1.088.683-1.629 1.027l-.225.141-.166.104c-1.506.965-3 1.956-4.486 2.967-2.453 1.67-4.879 3.394-7.271 5.176l-.93.699c-6.271 4.722-12.328 9.787-18.131 15.048-6.127 5.558-11.965 11.332-17.48 17.135-2.986 2.993-5.553 5.675-7.646 7.93-4.201 4.524-6.492 7.321-6.398 7.384.038.041.408-.302 1.064-.958-.543.63-1.086 1.259-1.619 1.887 9.158-9.765 19.314-19.764 30.221-29.184 6.625-5.717 13.52-11.221 20.641-16.327v.001c3.119-2.238 6.283-4.398 9.486-6.467 1.023-.663 2.055-1.317 3.088-1.961.516-.32 1.035-.631 1.553-.947l.879-.537c.553-.334 1.107-.662 1.662-.99.544-.32 1.086-.641 1.631-.956l.855-.491c.691-.396 1.387-.783 2.084-1.169l1.248-.688.004-.002c1.314-.716 2.635-1.407 3.959-2.086l.332-.168.621-.315.823-.419.31-.158.044-.021.558-.271.117-.057.064-.033 1.725-.836.314-.152.553-.26c.664-.313 1.326-.625 1.979-.927l.541-.251.279-.126.558-.25c.767-.347 1.53-.688 2.278-1.014.684-.298 1.348-.571 2.016-.852 3.771-1.586 7.318-2.919 10.613-3.979 6.331-2.029 11.799-3.142 16.597-3.348z"/></svg>